<?xml version="1.0" standalone="no"?>
<!DOCTYPE svg PUBLIC "-//W3C//DTD SVG 20010904//EN"
 "http://www.w3.org/TR/2001/REC-SVG-20010904/DTD/svg10.dtd">
<svg version="1.0" xmlns="http://www.w3.org/2000/svg"
 width="200.000000pt" height="200.000000pt" viewBox="0 0 200.000000 200.000000"
 preserveAspectRatio="xMidYMid meet">
<metadata>
Created by potrace 1.16, written by Peter Selinger 2001-2019
</metadata>
<g transform="translate(0.000000,200.000000) scale(0.100000,-0.100000)"
fill="#000000" stroke="none">
<path d="M0 1000 l0 -1000 1000 0 1000 0 0 1000 0 1000 -1000 0 -1000 0 0
-1000z m1175 555 c94 -54 220 -127 282 -162 l112 -65 3 -274 c2 -151 1 -281
-2 -289 -4 -11 -22 -4 -77 28 l-73 42 0 202 0 201 -210 121 c-116 67 -212 121
-215 121 -2 0 -46 -25 -99 -55 l-95 -55 -67 39 c-38 21 -69 42 -71 47 -2 5 52
41 119 79 68 38 143 82 167 97 24 15 47 26 50 24 3 -2 83 -48 176 -101z m-385
-354 c107 -62 214 -124 238 -137 l42 -25 0 -84 c0 -47 -3 -85 -7 -85 -6 0
-131 71 -355 202 -64 37 -122 68 -128 68 -7 0 -10 -60 -8 -197 l3 -197 210
-122 c116 -67 212 -120 215 -119 3 1 80 46 172 99 92 53 169 96 171 96 7 0
147 -81 147 -85 0 -3 -37 -25 -326 -194 -186 -108 -150 -107 -316 -11 -79 46
-179 104 -223 131 -44 26 -107 62 -140 81 l-60 34 -3 335 -2 334 37 22 38 21
50 -27 c28 -15 138 -78 245 -140z"/>
</g>
</svg>
